<svg width="1169" height="257" viewBox="0 0 1169 257" fill="none" xmlns="http://www.w3.org/2000/svg">
<path d="M126.945 0.900513C57.247 0.900513 0.745972 58.0136 0.745972 128.468C0.745972 198.922 57.247 256.034 126.945 256.034C196.643 256.034 253.145 198.921 253.145 128.468C253.145 58.0146 196.643 0.900513 126.945 0.900513ZM126.945 243.278C64.217 243.278 13.364 191.876 13.364 128.468C13.364 65.0601 64.217 13.6562 126.945 13.6562C189.673 13.6562 240.526 65.0611 240.526 128.468C240.525 191.876 189.672 243.278 126.945 243.278ZM226.264 144.734V155.639H191.37V101.296H202.096V144.734H226.264ZM58.796 155.639C71.487 155.86 82.786 147.558 86.497 135.292L118.804 159.277L151.111 135.292V155.639H186.007V144.734H161.839V101.296H151.111V121.643L120.131 144.605L113.19 139.501L128.017 128.468L144.172 116.476L134.959 109.652L103.977 132.613L97.035 127.51L128.017 104.486L118.804 97.6585L86.497 121.643C82.786 109.375 71.487 101.075 58.796 101.296H35.639V155.639H58.796ZM49.079 144.734V112.203H58.608C67.065 112.649 73.577 119.916 73.182 128.468C73.577 137.018 67.064 144.285 58.608 144.734H49.079Z" fill="#1187C9"/>
<path d="M398.275 17.1648H414.177C419.856 17.1648 425.471 17.6126 431.088 18.121C436.324 18.6254 441.529 19.4361 446.674 20.546C451.125 21.4123 455.396 23.0519 459.293 25.394C466.918 30.1247 473.391 36.5344 478.222 44.1459C483.701 52.9281 486.45 63.1739 486.11 73.5501C486.394 84.835 483.316 95.9471 477.277 105.443C471.126 114.563 462.298 121.502 452.035 125.278V125.979C464.806 128.109 476.355 134.923 484.47 145.116C492.154 155.566 496.13 168.329 495.764 181.344C495.766 189.745 494.227 198.072 491.222 205.902C488.264 213.806 483.734 221.013 477.907 227.078C471.678 233.446 464.255 238.497 456.075 241.94C446.525 245.862 436.283 247.771 425.977 247.552H314.92V17.1648H398.275ZM405.217 114.881C422.506 114.881 434.874 111.818 442.445 105.696C450.347 98.83 454.563 88.5842 453.804 78.0786C454.098 71.4789 452.778 64.9044 449.955 58.9415C447.554 54.2331 443.847 50.3353 439.29 47.7172C434.501 45.0678 429.253 43.3787 423.832 42.7429C417.553 41.9464 411.23 41.5623 404.902 41.5936H344.45V114.88H405.217V114.881ZM419.604 220.762C430.963 221.439 442.125 217.54 450.649 209.917C458.388 201.965 462.444 191.078 461.818 179.941C462.075 173.538 460.662 167.182 457.716 161.508C455.139 156.746 451.405 152.728 446.863 149.834C442.093 146.772 436.812 144.612 431.277 143.456C425.246 142.296 419.118 141.719 412.979 141.733H344.45V220.762H419.604Z" fill="#808081"/>
<path d="M518.167 129.298C521.368 119.043 526.607 109.557 533.563 101.423C540.545 93.4413 549.156 87.0892 558.803 82.7992C581.08 73.7836 605.934 73.7836 628.212 82.7992C637.843 87.1185 646.448 93.4685 653.452 101.423C660.384 109.574 665.62 119.055 668.848 129.298C672.326 140.48 674.05 152.145 673.959 163.867C674.06 175.506 672.335 187.091 668.848 198.182C665.606 208.381 660.369 217.816 653.452 225.928C646.491 233.884 637.868 240.181 628.212 244.361C605.921 253.291 581.095 253.291 558.803 244.361C549.13 240.205 540.503 233.906 533.563 225.928C526.622 217.832 521.383 208.39 518.167 198.182C514.68 187.09 512.955 175.505 513.056 163.867C512.964 152.145 514.691 140.48 518.167 129.298ZM545.931 190.913C548.251 198.188 552.008 204.917 556.972 210.685C561.561 215.893 567.197 220.047 573.505 222.866C586.287 228.456 600.789 228.456 613.574 222.866C619.88 220.047 625.515 215.894 630.104 210.685C635.068 204.917 638.826 198.189 641.148 190.913C643.947 182.178 645.31 173.043 645.185 163.867C645.314 154.668 643.951 145.51 641.148 136.76C638.783 129.463 635.03 122.702 630.104 116.859C625.554 111.578 619.912 107.376 613.574 104.549C600.789 98.9614 586.287 98.9614 573.505 104.549C567.165 107.376 561.52 111.579 556.972 116.859C552.047 122.703 548.294 129.463 545.931 136.76C543.096 145.502 541.73 154.667 541.892 163.867C541.735 173.046 543.101 182.188 545.931 190.913Z" fill="#808081"/>
<path d="M694.215 129.298C697.389 119.033 702.633 109.543 709.611 101.423C716.59 93.4393 725.199 87.0842 734.853 82.7992C757.13 73.7958 781.98 73.7958 804.259 82.7992C813.888 87.1185 822.497 93.4686 829.501 101.423C836.438 109.562 841.655 119.048 844.834 129.298C848.36 140.47 850.108 152.14 850.008 163.867C850.116 175.513 848.37 187.099 844.834 198.182C841.638 208.386 836.423 217.828 829.501 225.928C822.538 233.884 813.917 240.181 804.259 244.361C781.96 253.247 757.152 253.247 734.853 244.361C725.175 240.212 716.546 233.914 709.611 225.928C702.647 217.848 697.408 208.402 694.215 198.182C690.73 187.09 689.002 175.505 689.104 163.867C689.015 152.145 690.736 140.48 694.215 129.298ZM721.977 190.913C724.275 198.2 728.035 204.931 733.02 210.685C737.596 215.905 743.238 220.061 749.553 222.866C762.338 228.456 776.838 228.456 789.62 222.866C795.931 220.047 801.566 215.894 806.152 210.685C811.099 204.903 814.852 198.181 817.196 190.913C819.973 182.176 821.317 173.041 821.173 163.867C821.322 154.671 819.979 145.514 817.196 136.761C814.806 129.473 811.056 122.719 806.152 116.859C801.566 111.561 795.88 107.359 789.494 104.549C776.71 98.9615 762.21 98.9615 749.428 104.549C743.078 107.359 737.43 111.564 732.895 116.859C727.946 122.688 724.193 129.451 721.852 136.761C719.019 145.502 717.653 154.667 717.815 163.867C717.699 173.053 719.105 182.197 721.977 190.913Z" fill="#808081"/>
<path d="M900.236 79.607V104.037H900.869C918.784 77.1942 953.492 67.7378 982.328 81.8419C990.923 86.5332 997.271 94.539 999.935 104.037C1005.26 95.1284 1012.84 87.817 1021.89 82.8619C1031.08 77.8057 1041.4 75.2129 1051.87 75.3362C1059.48 75.2655 1067.07 76.1863 1074.45 78.0776C1080.77 79.7364 1086.68 82.689 1091.81 86.7526C1096.71 90.806 1100.55 96.0219 1102.98 101.933C1105.85 109.009 1107.22 116.613 1107.02 124.258V247.87H1080.13V138.036C1080.19 133.138 1079.76 128.246 1078.87 123.428C1078.14 119.172 1076.51 115.123 1074.08 111.566C1071.57 108.093 1068.19 105.364 1064.3 103.655C1059.19 101.496 1053.68 100.495 1048.14 100.721C1036.49 100.101 1025.1 104.318 1016.59 112.393C1008.72 120.752 1004.58 131.994 1005.11 143.52V247.869H975.577V138.036C975.608 133.023 975.122 128.02 974.127 123.111C973.301 118.849 971.606 114.806 969.142 111.247C966.769 107.884 963.571 105.203 959.867 103.466C955.04 101.494 949.861 100.559 944.659 100.722C937.587 100.547 930.587 102.215 924.343 105.569C919.046 108.513 914.373 112.479 910.587 117.241C907.258 121.474 904.656 126.238 902.889 131.337C901.482 135.252 900.673 139.361 900.49 143.521V247.87H873.42V79.607H900.236Z" fill="#808081"/>
<path d="M1141.91 49.7581V17.1648H1168.79V49.7581H1141.91ZM1168.79 79.607V247.869H1141.91V79.607H1168.79Z" fill="#808081"/>
</svg>
